<?xml version="1.0" encoding="UTF-8" standalone="no"?>
<!-- Created with Inkscape (http://www.inkscape.org/) -->

<svg
   xmlns:dc="http://purl.org/dc/elements/1.1/"
   xmlns:cc="http://creativecommons.org/ns#"
   xmlns:rdf="http://www.w3.org/1999/02/22-rdf-syntax-ns#"
   xmlns:svg="http://www.w3.org/2000/svg"
   xmlns="http://www.w3.org/2000/svg"
   xmlns:sodipodi="http://sodipodi.sourceforge.net/DTD/sodipodi-0.dtd"
   xmlns:inkscape="http://www.inkscape.org/namespaces/inkscape"
   width="123.93616mm"
   height="17.67547mm"
   viewBox="0 0 439.14386 62.629619"
   id="svg39932"
   version="1.1"
   inkscape:version="0.91 r13725"
   sodipodi:docname="accueil_notes.svg">
  <defs
     id="defs39934" />
  <sodipodi:namedview
     id="base"
     pagecolor="#ffffff"
     bordercolor="#666666"
     borderopacity="1.0"
     inkscape:pageopacity="0.0"
     inkscape:pageshadow="2"
     inkscape:zoom="0.98994949"
     inkscape:cx="253.65414"
     inkscape:cy="-116.28634"
     inkscape:document-units="px"
     inkscape:current-layer="layer1"
     showgrid="false"
     inkscape:window-width="1916"
     inkscape:window-height="1041"
     inkscape:window-x="0"
     inkscape:window-y="18"
     inkscape:window-maximized="0"
     fit-margin-top="0"
     fit-margin-left="0"
     fit-margin-right="0"
     fit-margin-bottom="0" />
  <metadata
     id="metadata39937">
    <rdf:RDF>
      <cc:Work
         rdf:about="">
        <dc:format>image/svg+xml</dc:format>
        <dc:type
           rdf:resource="http://purl.org/dc/dcmitype/StillImage" />
        <dc:title></dc:title>
      </cc:Work>
    </rdf:RDF>
  </metadata>
  <g
     inkscape:label="Layer 1"
     inkscape:groupmode="layer"
     id="layer1"
     transform="translate(-156.26852,-161.93361)">
    <polyline
       transform="matrix(0.16265414,0,0,0.34867844,133.21523,-379.34095)"
       class="StaffLines"
       points="141.732,1594.47 2835.47,1594.47"
       id="polyline8860"
       style="fill:#00efe8;fill-opacity:1;stroke:#00e9f4;stroke-width:2;stroke-linejoin:bevel;stroke-opacity:1" />
    <polyline
       transform="matrix(0.16228431,0,0,0.34867844,133.26764,-379.34095)"
       class="StaffLines"
       points="141.732,1619.47 2835.47,1619.47"
       id="polyline8862"
       style="fill:#00efe8;fill-opacity:1;stroke:#00e9f4;stroke-width:2;stroke-linejoin:bevel;stroke-opacity:1" />
    <polyline
       transform="matrix(0.16302397,0,0,0.34867844,133.16281,-379.34095)"
       class="StaffLines"
       points="141.732,1644.47 2835.47,1644.47"
       id="polyline8864"
       style="fill:#00efe8;fill-opacity:1;stroke:#00e9f4;stroke-width:2;stroke-linejoin:bevel;stroke-opacity:1" />
    <polyline
       transform="matrix(0.16228431,0,0,0.34867844,133.26764,-379.34095)"
       class="StaffLines"
       points="141.732,1669.47 2835.47,1669.47"
       id="polyline8866"
       style="fill:#00efe8;fill-opacity:1;stroke:#00e9f4;stroke-width:2;stroke-linejoin:bevel;stroke-opacity:1" />
    <polyline
       transform="matrix(0.16302397,0,0,0.34867844,133.16281,-379.34095)"
       class="StaffLines"
       points="141.732,1694.47 2835.47,1694.47"
       id="polyline8868"
       style="fill:#00efe8;fill-opacity:1;stroke:#00e9f4;stroke-width:2;stroke-linejoin:bevel;stroke-opacity:1" />
    <polyline
       transform="matrix(0.34867844,0,0,0.34867844,106.84963,-379.34095)"
       class="LedgerLine"
       points="531.363,1569.47 579.277,1569.47"
       id="polyline9074"
       style="fill:#00efe8;fill-opacity:1;stroke:#00e9f4;stroke-width:4;stroke-linecap:square;stroke-linejoin:bevel;stroke-opacity:1" />
    <polyline
       transform="matrix(0.34867844,0,0,0.34867844,106.84963,-379.34095)"
       class="LedgerLine"
       points="1036.17,1569.47 1084.08,1569.47"
       id="polyline9076"
       style="fill:#00efe8;fill-opacity:1;stroke:#00e9f4;stroke-width:4;stroke-linecap:square;stroke-linejoin:bevel;stroke-opacity:1" />
    <polyline
       transform="matrix(0.34867844,0,0,0.34867844,106.84963,-379.34095)"
       class="Stem"
       points="443.951,1664.77 443.951,1581.97"
       id="polyline9280"
       style="fill:#00efe8;fill-opacity:1;stroke:#00e9f4;stroke-width:3.25;stroke-linecap:round;stroke-linejoin:bevel;stroke-opacity:1" />
    <polyline
       transform="matrix(0.34867844,0,0,0.34867844,106.84963,-379.34095)"
       class="Stem"
       points="540.488,1574.16 540.488,1663.22"
       id="polyline9282"
       style="fill:#00efe8;fill-opacity:1;stroke:#00e9f4;stroke-width:3.25;stroke-linecap:round;stroke-linejoin:bevel;stroke-opacity:1" />
    <polyline
       transform="matrix(0.34867844,0,0,0.34867844,106.84963,-379.34095)"
       class="Stem"
       points="603.588,1586.66 603.588,1669.47"
       id="polyline9284"
       style="fill:#00efe8;fill-opacity:1;stroke:#00e9f4;stroke-width:3.25;stroke-linecap:round;stroke-linejoin:bevel;stroke-opacity:1" />
    <polyline
       transform="matrix(0.34867844,0,0,0.34867844,106.84963,-379.34095)"
       class="Stem"
       points="666.689,1611.66 666.689,1688.22"
       id="polyline9286"
       style="fill:#00efe8;fill-opacity:1;stroke:#00e9f4;stroke-width:3.25;stroke-linecap:round;stroke-linejoin:bevel;stroke-opacity:1" />
    <polyline
       transform="matrix(0.34867844,0,0,0.34867844,106.84963,-379.34095)"
       class="Stem"
       points="729.789,1599.16 729.789,1688.22"
       id="polyline9288"
       style="fill:#00efe8;fill-opacity:1;stroke:#00e9f4;stroke-width:3.25;stroke-linecap:round;stroke-linejoin:bevel;stroke-opacity:1" />
    <polyline
       transform="matrix(0.34867844,0,0,0.34867844,106.84963,-379.34095)"
       class="Stem"
       points="792.889,1599.16 792.889,1688.22"
       id="polyline9290"
       style="fill:#00efe8;fill-opacity:1;stroke:#00e9f4;stroke-width:3.25;stroke-linecap:round;stroke-linejoin:bevel;stroke-opacity:1" />
    <polyline
       transform="matrix(0.34867844,0,0,0.34867844,106.84963,-379.34095)"
       class="Stem"
       points="855.99,1611.66 855.99,1688.22"
       id="polyline9292"
       style="fill:#00efe8;fill-opacity:1;stroke:#00e9f4;stroke-width:3.25;stroke-linecap:round;stroke-linejoin:bevel;stroke-opacity:1" />
    <polyline
       transform="matrix(0.34867844,0,0,0.34867844,106.84963,-379.34095)"
       class="Stem"
       points="919.09,1636.66 919.09,1719.47"
       id="polyline9294"
       style="fill:#00efe8;fill-opacity:1;stroke:#00e9f4;stroke-width:3.25;stroke-linecap:round;stroke-linejoin:bevel;stroke-opacity:1" />
    <polyline
       transform="matrix(0.34867844,0,0,0.34867844,106.84963,-379.34095)"
       class="Stem"
       points="982.19,1611.66 982.19,1709.05"
       id="polyline9296"
       style="fill:#00efe8;fill-opacity:1;stroke:#00e9f4;stroke-width:3.25;stroke-linecap:round;stroke-linejoin:bevel;stroke-opacity:1" />
    <polyline
       transform="matrix(0.34867844,0,0,0.34867844,106.84963,-379.34095)"
       class="Stem"
       points="1045.29,1574.16 1045.29,1698.63"
       id="polyline9298"
       style="fill:#00efe8;fill-opacity:1;stroke:#00e9f4;stroke-width:3.25;stroke-linecap:round;stroke-linejoin:bevel;stroke-opacity:1" />
    <polyline
       transform="matrix(0.34867844,0,0,0.34867844,106.84963,-379.34095)"
       class="Stem"
       points="1108.39,1586.66 1108.39,1688.22"
       id="polyline9300"
       style="fill:#00efe8;fill-opacity:1;stroke:#00e9f4;stroke-width:3.25;stroke-linecap:round;stroke-linejoin:bevel;stroke-opacity:1" />
    <polyline
       transform="matrix(0.34867844,0,0,0.34867844,106.84963,-379.34095)"
       class="Stem"
       points="1171.49,1611.66 1171.49,1694.47"
       id="polyline9302"
       style="fill:#00efe8;fill-opacity:1;stroke:#00e9f4;stroke-width:3.25;stroke-linecap:round;stroke-linejoin:bevel;stroke-opacity:1" />
    <path
       inkscape:connector-curvature="0"
       class="Note"
       d="m 258.39609,197.96595 c 1.08962,0 2.01048,0.28244 2.76224,0.85079 0.70083,0.61367 1.05125,1.38425 1.05125,2.31522 0,1.56557 -0.8044,3.03001 -2.4132,4.38986 -1.6346,1.36334 -3.38358,2.04326 -5.24656,2.04326 -1.08962,0 -2.00874,-0.28244 -2.75699,-0.85078 -0.70434,-0.61368 -1.05684,-1.38425 -1.05684,-2.31522 0,-1.56556 0.8173,-3.02653 2.45155,-4.38986 1.591,-1.36334 3.32708,-2.04327 5.20855,-2.04327"
       id="path9746"
       style="fill:#00efe8;fill-opacity:1;stroke:#00e9f4;stroke-width:0.34867847;stroke-opacity:1" />
    <path
       inkscape:connector-curvature="0"
       class="Note"
       d="m 302.39966,163.09811 c 1.08961,0 2.01013,0.28244 2.76188,0.85077 0.70119,0.61368 1.05161,1.38426 1.05161,2.31523 0,1.56557 -0.8044,3.03002 -2.41356,4.38986 -1.63425,1.36334 -3.38322,2.04327 -5.24656,2.04327 -1.08961,0 -2.00838,-0.28244 -2.75665,-0.85079 -0.70468,-0.61367 -1.05684,-1.38424 -1.05684,-2.31522 0,-1.56556 0.8173,-3.02653 2.45156,-4.38986 1.59102,-1.36334 3.32708,-2.04326 5.20856,-2.04326"
       id="path9748"
       style="fill:#00efe8;fill-opacity:1;stroke:#00e9f4;stroke-width:0.34867847;stroke-opacity:1" />
    <path
       inkscape:connector-curvature="0"
       class="Note"
       d="m 324.40127,167.4566 c 1.08961,0 2.01048,0.28242 2.76223,0.85077 0.70085,0.61367 1.05126,1.38426 1.05126,2.31522 0,1.56558 -0.8044,3.03002 -2.4132,4.38987 -1.63461,1.36332 -3.38357,2.04326 -5.24656,2.04326 -1.08962,0 -2.00874,-0.28243 -2.757,-0.85078 -0.70434,-0.61368 -1.05684,-1.38427 -1.05684,-2.31523 0,-1.56556 0.8173,-3.02653 2.45155,-4.38985 1.59101,-1.36334 3.32709,-2.04326 5.20856,-2.04326"
       id="path9750"
       style="fill:#00efe8;fill-opacity:1;stroke:#00e9f4;stroke-width:0.34867847;stroke-opacity:1" />
    <path
       inkscape:connector-curvature="0"
       class="Note"
       d="m 346.40288,176.17355 c 1.08961,0 2.01047,0.28243 2.76222,0.85078 0.70121,0.61368 1.05162,1.38426 1.05162,2.31524 0,1.56556 -0.8044,3.03001 -2.41356,4.38985 -1.63459,1.36333 -3.38322,2.04326 -5.24655,2.04326 -1.08963,0 -2.00839,-0.28243 -2.75666,-0.85078 -0.70467,-0.61367 -1.05684,-1.38425 -1.05684,-2.31522 0,-1.56557 0.81695,-3.02653 2.45156,-4.38986 1.59066,-1.36333 3.32674,-2.04327 5.20821,-2.04327"
       id="path9752"
       style="fill:#00efe8;fill-opacity:1;stroke:#00e9f4;stroke-width:0.34867847;stroke-opacity:1" />
    <path
       inkscape:connector-curvature="0"
       class="Note"
       d="m 368.40484,171.81508 c 1.08961,0 2.01012,0.28243 2.76223,0.85077 0.70084,0.61367 1.05127,1.38425 1.05127,2.31521 0,1.56558 -0.80441,3.03003 -2.41356,4.38988 -1.63426,1.36333 -3.38323,2.04326 -5.24657,2.04326 -1.08961,0 -2.00838,-0.28243 -2.75664,-0.85078 -0.70469,-0.61366 -1.05685,-1.38425 -1.05685,-2.31522 0,-1.56558 0.8173,-3.02654 2.45156,-4.38987 1.59102,-1.36333 3.32708,-2.04325 5.20856,-2.04325"
       id="path9754"
       style="fill:#00efe8;fill-opacity:1;stroke:#00e9f4;stroke-width:0.34867847;stroke-opacity:1" />
    <path
       inkscape:connector-curvature="0"
       class="Note"
       d="m 390.40644,171.81508 c 1.08962,0 2.01048,0.28243 2.76223,0.85077 0.70085,0.61367 1.05162,1.38425 1.05162,2.31521 0,1.56558 -0.80475,3.03003 -2.41355,4.38988 -1.63461,1.36333 -3.38323,2.04326 -5.24656,2.04326 -1.08963,0 -2.00874,-0.28243 -2.75666,-0.85078 -0.70467,-0.61366 -1.0572,-1.38425 -1.0572,-2.31522 0,-1.56558 0.81731,-3.02654 2.45191,-4.38987 1.59068,-1.36333 3.32675,-2.04325 5.20821,-2.04325"
       id="path9756"
       style="fill:#00efe8;fill-opacity:1;stroke:#00e9f4;stroke-width:0.34867847;stroke-opacity:1" />
    <path
       inkscape:connector-curvature="0"
       class="Note"
       d="m 412.40805,176.17355 c 1.08962,0 2.01048,0.28243 2.76224,0.85078 0.7012,0.61368 1.05162,1.38426 1.05162,2.31524 0,1.56556 -0.80441,3.03001 -2.41356,4.38985 -1.63425,1.36333 -3.38322,2.04326 -5.24656,2.04326 -1.08962,0 -2.00838,-0.28243 -2.75666,-0.85078 -0.70468,-0.61367 -1.05685,-1.38425 -1.05685,-2.31522 0,-1.56557 0.81696,-3.02653 2.45156,-4.38986 1.59068,-1.36333 3.3271,-2.04327 5.20821,-2.04327"
       id="path9758"
       style="fill:#00efe8;fill-opacity:1;stroke:#00e9f4;stroke-width:0.34867847;stroke-opacity:1" />
    <path
       inkscape:connector-curvature="0"
       class="Note"
       d="m 434.41001,184.89052 c 1.08963,0 2.01014,0.28243 2.76224,0.85078 0.70084,0.61367 1.05126,1.38425 1.05126,2.31522 0,1.56556 -0.80439,3.03002 -2.41355,4.38986 -1.63425,1.36334 -3.38323,2.04326 -5.24658,2.04326 -1.08961,0 -2.00837,-0.28243 -2.75663,-0.85078 -0.70468,-0.61367 -1.05685,-1.38426 -1.05685,-2.31523 0,-1.56557 0.81729,-3.02651 2.45156,-4.38986 1.59102,-1.36332 3.32709,-2.04325 5.20855,-2.04325"
       id="path9760"
       style="fill:#00efe8;fill-opacity:1;stroke:#00e9f4;stroke-width:0.34867847;stroke-opacity:1" />
    <path
       inkscape:connector-curvature="0"
       class="Note"
       d="m 456.41024,176.17355 c 1.09137,0 2.01188,0.28243 2.76503,0.85078 0.70084,0.61368 1.04952,1.38426 1.04952,2.31524 0,1.56556 -0.80545,3.03001 -2.41286,4.38985 -1.6353,1.36333 -3.38322,2.04326 -5.24656,2.04326 -1.08961,0 -2.00874,-0.28243 -2.75666,-0.85078 -0.70467,-0.61367 -1.05719,-1.38425 -1.05719,-2.31522 0,-1.56557 0.81731,-3.02653 2.4519,-4.38986 1.59068,-1.36333 3.32675,-2.04327 5.20682,-2.04327"
       id="path9762"
       style="fill:#00efe8;fill-opacity:1;stroke:#00e9f4;stroke-width:0.34867847;stroke-opacity:1" />
    <path
       inkscape:connector-curvature="0"
       class="Note"
       d="m 478.41185,163.09811 c 1.09137,0 2.01188,0.28244 2.76502,0.85077 0.70085,0.61368 1.04952,1.38426 1.04952,2.31523 0,1.56557 -0.80544,3.03002 -2.41285,4.38986 -1.6353,1.36334 -3.38218,2.04327 -5.24761,2.04327 -1.08787,0 -2.00838,-0.28244 -2.75456,-0.85079 -0.70434,-0.61367 -1.0565,-1.38424 -1.0565,-2.31522 0,-1.56556 0.81592,-3.02653 2.45122,-4.38986 1.58996,-1.36334 3.3264,-2.04326 5.20576,-2.04326"
       id="path9764"
       style="fill:#00efe8;fill-opacity:1;stroke:#00e9f4;stroke-width:0.34867847;stroke-opacity:1" />
    <path
       inkscape:connector-curvature="0"
       class="Note"
       d="m 500.41346,167.4566 c 1.09136,0 2.01188,0.28242 2.76502,0.85077 0.70084,0.61367 1.04953,1.38426 1.04953,2.31522 0,1.56558 -0.80198,3.03002 -2.41286,4.38987 -1.63531,1.36332 -3.38218,2.04326 -5.24761,2.04326 -1.08788,0 -2.00839,-0.28243 -2.75457,-0.85078 -0.70432,-0.61368 -1.05649,-1.38427 -1.05649,-2.31523 0,-1.56556 0.8159,-3.02653 2.4512,-4.38985 1.58998,-1.36334 3.3264,-2.04326 5.20578,-2.04326"
       id="path9766"
       style="fill:#00efe8;fill-opacity:1;stroke:#00e9f4;stroke-width:0.34867847;stroke-opacity:1" />
    <path
       inkscape:connector-curvature="0"
       class="Note"
       d="m 522.41855,176.17355 c 1.08787,0 2.00838,0.28243 2.76153,0.85078 0.70085,0.61368 1.04952,1.38426 1.04952,2.31524 0,1.56556 -0.80196,3.03001 -2.41286,4.38985 -1.6353,1.36333 -3.38217,2.04326 -5.2476,2.04326 -1.08789,0 -2.0084,-0.28243 -2.75457,-0.85078 -0.70432,-0.61367 -1.05649,-1.38425 -1.05649,-2.31522 0,-1.56557 0.81589,-3.02653 2.4512,-4.38986 1.58998,-1.36333 3.32639,-2.04327 5.20927,-2.04327"
       id="path9768"
       style="fill:#00efe8;fill-opacity:1;stroke:#00e9f4;stroke-width:0.34867847;stroke-opacity:1" />
    <path
       inkscape:connector-curvature="0"
       class="Clef"
       d="m 176.04522,193.84109 c 0,0 0.069,0 0.20711,0 0.0907,-0.0209 0.16876,-0.0313 0.23431,-0.0313 2.54222,0 4.63081,0.89611 6.26507,2.6918 1.63459,1.76779 2.4519,3.83196 2.4519,6.19252 0,2.9324 -1.21305,5.31735 -3.63951,7.15489 -0.63563,0.50209 -1.4655,0.91004 -2.48956,1.22386 0.11611,1.47491 0.17434,2.66739 0.17434,3.57395 0,0.18481 -0.0237,0.8438 -0.0711,1.9805 -0.0907,2.10951 -0.81695,3.93657 -2.17923,5.48122 -1.31453,1.52024 -2.94912,2.28036 -4.90312,2.28036 -1.83788,0 -3.4031,-0.64505 -4.69635,-1.93866 -1.29673,-1.31799 -1.94493,-2.90798 -1.94493,-4.76642 0,-0.97631 0.37587,-1.80616 1.12762,-2.48957 0.77024,-0.67992 1.6653,-1.01814 2.68623,-1.01814 0.90794,0 1.66877,0.35216 2.28245,1.05648 0.63563,0.65553 0.95363,1.47493 0.95363,2.45123 0,0.88216 -0.318,1.64227 -0.95363,2.27687 -0.6353,0.63459 -1.39647,0.95188 -2.28245,0.95188 -0.36333,0 -0.71375,-0.0662 -1.05162,-0.19873 0.99897,1.47141 2.32639,2.21061 3.9826,2.21061 1.56524,0 2.84731,-0.63459 3.84629,-1.90728 1.04603,-1.31451 1.61436,-2.84869 1.70537,-4.59906 0.0436,-1.08787 0.0653,-1.71201 0.0653,-1.86891 0,-1.26919 -0.0454,-2.31523 -0.13598,-3.13114 -1.13321,0.18132 -2.14297,0.27198 -3.02933,0.27198 -3.15623,0 -5.84593,-1.24828 -8.06875,-3.7483 -2.17925,-2.52094 -3.26886,-5.5161 -3.26886,-8.98893 0,-0.72526 0.0673,-1.46445 0.20188,-2.21062 0.13771,-0.61368 0.30858,-1.28662 0.51185,-2.01187 0.11263,-0.41144 0.41946,-1.07045 0.92087,-1.97701 0.18166,-0.27197 0.38599,-0.61367 0.61297,-1.02163 0.22699,-0.40794 0.38599,-0.67992 0.47665,-0.81591 0.22525,-0.45328 0.66631,-1.06695 1.32393,-1.84102 0.18167,-0.20224 0.3696,-0.42887 0.56381,-0.67644 0.19421,-0.25103 0.35949,-0.45327 0.49582,-0.61366 0.13598,-0.1604 0.23779,-0.28592 0.30509,-0.37658 0.0673,-0.0907 0.57846,-0.69038 1.5335,-1.80266 0.22524,-0.23013 0.44596,-0.47421 0.66214,-0.73223 0.21618,-0.26151 0.39225,-0.46375 0.52824,-0.61368 0.13634,-0.14992 0.23884,-0.25801 0.30788,-0.32077 -0.81731,-2.70228 -1.32915,-4.86058 -1.53627,-6.47497 -0.1562,-1.29011 -0.23432,-3.06139 -0.23432,-5.31038 0,-1.97701 0.45399,-3.825 1.36194,-5.55095 0.88285,-1.79222 2.11926,-3.25667 3.71029,-4.39335 0.0907,-0.0662 0.20329,-0.10112 0.33787,-0.10112 0.1597,0 0.27406,0.0348 0.3431,0.10112 1.22386,1.4749 2.27931,3.39264 3.1653,5.75319 0.90797,2.36403 1.36193,4.50841 1.36193,6.4401 0,2.17923 -0.52092,4.22248 -1.56347,6.12976 -1.18027,2.01885 -2.70225,4.10743 -4.56559,6.26576 0.47595,1.49582 1.11159,3.84592 1.90693,7.0433 m 2.89299,15.83697 c 1.18027,-0.42886 2.10113,-1.16807 2.76221,-2.21062 0.7263,-0.99722 1.08963,-2.12345 1.08963,-3.37172 0,-1.61439 -0.54498,-3.04397 -1.6346,-4.29224 -1.11508,-1.29359 -2.53524,-2.01884 -4.26015,-2.17924 0.97698,4.79084 1.65796,8.80762 2.04291,12.05382 m -13.17343,-7.8662 c 0,2.24896 0.90796,4.22597 2.72387,5.92751 1.85985,1.65623 3.94809,2.48609 6.26541,2.48609 0.95154,0 1.88146,-0.0697 2.78943,-0.20921 -0.36333,-3.44843 -1.07882,-7.58027 -2.14647,-12.39202 -1.29325,0.13597 -2.32464,0.58926 -3.09452,1.35984 -0.7521,0.79498 -1.12797,1.69457 -1.12797,2.69179 0,1.72596 0.92085,3.12068 2.76223,4.19112 0.1562,0.16039 0.23431,0.33123 0.23431,0.51256 0,0.18131 -0.0781,0.34868 -0.23431,0.50558 -0.13808,0.16039 -0.30858,0.24058 -0.51221,0.24058 -0.0215,0 -0.12344,-0.0245 -0.30509,-0.0662 -1.29639,-0.70431 -2.29536,-1.61437 -2.99619,-2.72317 -0.66111,-1.18551 -0.99164,-2.37798 -0.99164,-3.58093 0,-1.56555 0.48849,-2.98468 1.46549,-4.25387 1.02057,-1.27267 2.34799,-2.08859 3.98259,-2.45121 -0.63563,-2.54187 -1.1569,-4.52934 -1.56346,-5.96241 -0.36333,0.41145 -0.80022,0.90657 -1.31034,1.4819 -0.51047,0.5788 -0.81103,0.92398 -0.90168,1.04254 -0.81731,1.06347 -1.44214,1.88984 -1.87415,2.48259 -0.77371,1.06696 -1.34206,1.98747 -1.70538,2.75806 -0.38495,0.86472 -0.72456,1.80614 -1.01884,2.82777 -0.29394,0.97629 -0.44108,2.01884 -0.44108,3.13114 m 11.37005,-34.62727 c -1.70329,0.84031 -3.04187,2.03976 -4.01537,3.60534 -0.99863,1.61437 -1.49793,3.35079 -1.49793,5.20925 0,1.63531 0.4083,3.83895 1.2256,6.60747 1.63461,-1.97353 2.86022,-3.8006 3.67752,-5.47775 0.86088,-1.77478 1.29115,-3.62626 1.29115,-5.55445 0,-1.4505 -0.22698,-2.91495 -0.68097,-4.38986"
       id="path10092"
       style="fill:#00efe8;fill-opacity:1;stroke:#00e9f4;stroke-width:0.34867847;stroke-opacity:1" />
    <path
       inkscape:connector-curvature="0"
       class="KeySig"
       d="m 204.4273,179.5418 0,2.69179 c 0,0.95537 0.0454,1.7155 0.13598,2.28035 0.74826,-0.63459 1.28209,-1.10879 1.60182,-1.42609 0.36334,-0.36263 0.72631,-0.86472 1.08963,-1.5028 0.36332,-0.63459 0.54463,-1.27267 0.54463,-1.90727 0,-0.63459 -0.13598,-1.18202 -0.4083,-1.63529 -0.27266,-0.4533 -0.63563,-0.67994 -1.08962,-0.67994 -0.54498,0 -0.99897,0.20573 -1.36228,0.61368 -0.34136,0.45677 -0.51186,0.97629 -0.51186,1.56557 m -1.43307,6.23088 -0.44108,-20.73591 c 0.31939,-0.18131 0.63809,-0.27197 0.95607,-0.27197 0.31765,0 0.6346,0.0907 0.9505,0.27197 l -0.27232,12.01895 c 0.92993,-0.795 1.99758,-1.19249 3.20366,-1.19249 0.88251,0 1.61892,0.36262 2.20888,1.09137 0.59032,0.72525 0.88563,1.55511 0.88563,2.48956 0,0.58579 -0.1928,1.2134 -0.57775,1.87241 -0.36297,0.61018 -0.74826,1.08787 -1.15482,1.42609 -0.22873,0.1848 -0.80824,0.63809 -1.73816,1.36334 -0.27231,0.20223 -0.59556,0.44282 -0.96968,0.71479 -0.37413,0.27196 -0.60634,0.44281 -0.69735,0.51255 -0.15971,0.0907 -0.30859,0.27197 -0.44666,0.54394 -0.15621,0.23013 -0.33787,0.4219 -0.54499,0.57881 -0.15586,0.13598 -0.34762,0.20572 -0.57461,0.20572 -0.227,0 -0.40935,-0.0802 -0.54744,-0.24059 -0.16004,-0.16038 -0.23988,-0.37656 -0.23988,-0.64854"
       id="path10118"
       style="fill:#00efe8;fill-opacity:1;stroke:#00e9f4;stroke-width:0.34867847;stroke-opacity:1" />
    <path
       inkscape:connector-curvature="0"
       class="KeySig"
       d="m 195.71034,192.61724 0,2.69179 c 0,0.95539 0.0454,1.71549 0.13598,2.28036 0.74826,-0.6346 1.28209,-1.10879 1.60182,-1.4261 0.36334,-0.36262 0.72631,-0.86471 1.08964,-1.5028 0.36331,-0.6346 0.54463,-1.27267 0.54463,-1.90727 0,-0.63459 -0.136,-1.18202 -0.40831,-1.63531 -0.27267,-0.45328 -0.63565,-0.67992 -1.08962,-0.67992 -0.54498,0 -0.99896,0.20572 -1.36229,0.61368 -0.34135,0.45677 -0.51185,0.97631 -0.51185,1.56557 m -1.43306,6.23088 -0.4411,-20.73591 c 0.31939,-0.18131 0.63809,-0.27196 0.95608,-0.27196 0.31765,0 0.63459,0.0906 0.9505,0.27196 l -0.27232,12.01895 c 0.92993,-0.79499 1.99759,-1.19249 3.20366,-1.19249 0.8825,0 1.6189,0.36264 2.20888,1.09138 0.59031,0.72524 0.88565,1.5551 0.88565,2.48956 0,0.58576 -0.19283,1.2134 -0.57777,1.87239 -0.36298,0.6102 -0.74827,1.08789 -1.15483,1.42611 -0.22872,0.18479 -0.80822,0.63807 -1.73816,1.36333 -0.2723,0.20222 -0.59554,0.44281 -0.96966,0.71478 -0.37414,0.27198 -0.60636,0.44282 -0.69737,0.51256 -0.1597,0.0907 -0.30857,0.27198 -0.44664,0.54394 -0.15623,0.23012 -0.33788,0.4219 -0.54499,0.5788 -0.15622,0.13599 -0.34763,0.20572 -0.57463,0.20572 -0.22699,0 -0.40969,-0.0802 -0.54743,-0.24058 -0.16004,-0.16039 -0.23987,-0.37658 -0.23987,-0.64854"
       id="path10120"
       style="fill:#00efe8;fill-opacity:1;stroke:#00e9f4;stroke-width:0.34867847;stroke-opacity:1" />
    <path
       inkscape:connector-curvature="0"
       class="TimeSig"
       d="m 227.22215,177.02782 c 0.67923,0 1.25733,-0.0802 1.73502,-0.2371 0.47769,-0.1604 0.78383,-0.23711 0.91808,-0.23711 0.15968,0 0.28521,0.0454 0.37585,0.13599 0.069,0.0662 0.11438,0.14295 0.13635,0.23362 0,0.0488 -0.0237,0.11505 -0.0708,0.20571 l -9.90491,11.51337 5.81875,0 0,-4.56421 c 0,-0.29637 0.0798,-0.54741 0.23954,-0.75314 0.27266,-0.22663 0.49966,-0.36262 0.68097,-0.40794 0.29428,-0.13599 0.65761,-0.45328 1.08962,-0.95538 0.36333,-0.40447 0.79569,-1.11926 1.29673,-2.1409 0.0655,-0.13598 0.16702,-0.20572 0.30509,-0.20572 0.27233,0 0.43062,0.1604 0.47421,0.4777 l 0,8.54959 2.48956,0 c 0.31591,0 0.49756,0.16737 0.54499,0.50558 0,0.34171 -0.18166,0.51255 -0.54499,0.51255 l -2.48956,0 0,0.27197 c 0,0.91007 0.22699,1.68064 0.68096,2.31524 0.52303,0.63808 1.1367,0.95537 1.84138,0.95537 0.27231,0 0.40865,0.13598 0.40865,0.40795 0,0.27198 -0.13634,0.40797 -0.40865,0.40797 -0.47595,0 -1.24757,-0.0662 -2.31558,-0.20224 -0.97699,-0.16039 -1.73781,-0.2371 -2.28279,-0.2371 -0.56661,0 -1.32741,0.0767 -2.28246,0.2371 -1.02058,0.13599 -1.78,0.20224 -2.27756,0.20224 -0.27231,0 -0.40865,-0.13599 -0.40865,-0.40797 0,-0.27197 0.13634,-0.40795 0.40865,-0.40795 0.70119,0 1.31311,-0.31729 1.83614,-0.95537 0.47595,-0.65552 0.71375,-1.42957 0.71375,-2.31524 l 0,-0.27197 -5.81875,0 c -0.38843,0 -0.66075,-0.0906 -0.81696,-0.27195 -0.18549,-0.13599 -0.27789,-0.31731 -0.27789,-0.54395 0,-0.0697 0.17051,-0.30683 0.51186,-0.71479 0.38878,-0.45329 0.79742,-1.01117 1.22595,-1.66667 0.5014,-0.77407 0.97873,-1.56906 1.43273,-2.38498 0.49791,-0.93096 0.8954,-1.99792 1.19317,-3.20435 0.33786,-1.22385 0.50663,-2.47213 0.50663,-3.74481 0,-0.36264 0.16005,-0.54393 0.47942,-0.54393 0.069,0 0.21619,0.0348 0.44143,0.1046 0.069,0.0209 0.21166,0.0558 0.42784,0.10112 0.21584,0.0454 0.39122,0.0872 0.52545,0.1325 0.41075,0.0697 0.79744,0.1046 1.16076,0.1046"
       id="path10186"
       style="fill:#00efe8;fill-opacity:1;stroke:#00e9f4;stroke-width:0.34867847;stroke-opacity:1" />
    <path
       inkscape:connector-curvature="0"
       class="TimeSig"
       d="m 227.22215,194.52103 c 0.67923,0 1.25733,-0.0802 1.73502,-0.23712 0.47769,-0.15689 0.78383,-0.23709 0.91808,-0.23709 0.15968,0 0.28521,0.0454 0.37585,0.13599 0.069,0.0662 0.11438,0.14295 0.13635,0.23361 0,0.0489 -0.0237,0.11506 -0.0708,0.2092 l -9.90491,11.50988 5.81875,0 0,-4.56421 c 0,-0.29637 0.0798,-0.54743 0.23954,-0.75315 0.27266,-0.22315 0.49966,-0.36261 0.68097,-0.40795 0.29428,-0.13598 0.65761,-0.45328 1.08962,-0.95537 0.36333,-0.40447 0.79569,-1.11926 1.29673,-2.1409 0.0655,-0.13598 0.16702,-0.20571 0.30509,-0.20571 0.27233,0 0.43062,0.16039 0.47421,0.48118 l 0,8.54611 2.48956,0 c 0.31591,0 0.49756,0.17085 0.54499,0.50558 0,0.3417 -0.18166,0.51256 -0.54499,0.51256 l -2.48956,0 0,0.27196 c 0,0.91005 0.22699,1.68064 0.68096,2.31523 0.52303,0.63808 1.1367,0.95537 1.84138,0.95537 0.27231,0 0.40865,0.13599 0.40865,0.40796 0,0.27198 -0.13634,0.40796 -0.40865,0.40796 -0.47595,0 -1.24757,-0.0662 -2.31558,-0.20223 -0.97699,-0.15692 -1.73781,-0.23711 -2.28279,-0.23711 -0.56661,0 -1.32741,0.0802 -2.28246,0.23711 -1.02058,0.13598 -1.78,0.20223 -2.27756,0.20223 -0.27231,0 -0.40865,-0.13599 -0.40865,-0.40796 0,-0.27197 0.13634,-0.40796 0.40865,-0.40796 0.70119,0 1.31311,-0.31729 1.83614,-0.95537 0.47595,-0.65552 0.71375,-1.42609 0.71375,-2.31523 l 0,-0.27196 -5.81875,0 c -0.38843,0 -0.66075,-0.0907 -0.81696,-0.27198 -0.18549,-0.1325 -0.27789,-0.31381 -0.27789,-0.54394 0,-0.0697 0.17051,-0.30683 0.51186,-0.71478 0.38878,-0.45328 0.79742,-1.00768 1.22595,-1.66669 0.5014,-0.77406 0.97873,-1.56904 1.43273,-2.38496 0.49791,-0.93097 0.8954,-1.99792 1.19317,-3.20435 0.33786,-1.22386 0.50663,-2.47213 0.50663,-3.74132 0,-0.36611 0.16005,-0.54742 0.47942,-0.54742 0.069,0 0.21619,0.0348 0.44143,0.10461 0.069,0.0209 0.21166,0.0558 0.42784,0.1011 0.21584,0.0454 0.39122,0.0907 0.52545,0.13251 0.41075,0.0697 0.79744,0.1046 1.16076,0.1046"
       id="path10188"
       style="fill:#00efe8;fill-opacity:1;stroke:#00e9f4;stroke-width:0.34867847;stroke-opacity:1" />
    <path
       inkscape:connector-curvature="0"
       class="Rest"
       d="m 277.09606,186.89543 c 0.68307,0 1.17157,0.1813 1.46586,0.54393 0.31589,0.39053 0.50836,0.77756 0.5774,1.1611 0.0215,0.38703 0.13597,0.77058 0.3431,1.15413 0.13459,0.36611 0.38319,0.54743 0.74651,0.54743 0.22874,0 0.57009,-0.27197 1.02409,-0.8194 0.51951,-0.6346 0.84832,-1.08788 0.98605,-1.35986 0.11262,-0.22663 0.27092,-0.33821 0.4742,-0.33821 0,0 0.0126,0 0.0381,0 0.20363,0.0209 0.35043,0.1325 0.44143,0.33821 l -6.23263,23.36146 c -0.22525,0.22664 -0.54219,0.34171 -0.95085,0.34171 -0.40864,0 -0.72733,-0.11507 -0.95607,-0.34171 l 3.50874,-11.40876 c -1.52197,0.54395 -2.75873,0.81591 -3.71028,0.81591 -0.81729,0 -1.52199,-0.25802 -2.11402,-0.77755 -0.6137,-0.5021 -0.92052,-1.1611 -0.92052,-1.97702 0,-0.7078 0.23779,-1.29708 0.71373,-1.77127 0.50106,-0.49862 1.10392,-0.74617 1.80861,-0.74617 0.67923,0 1.16772,0.18131 1.46548,0.54393 0.33787,0.38356 0.54116,0.77058 0.6102,1.15413 0.069,0.45327 0.1834,0.84031 0.34345,1.1611 0.1562,0.36262 0.40481,0.54394 0.74618,0.54394 0.27265,0 0.65934,-0.3173 1.16039,-0.9519 0.51953,-0.59274 0.83753,-1.05998 0.95363,-1.40167 l 1.59626,-5.27901 c -1.45295,0.52302 -2.666,0.78453 -3.63952,0.78453 -0.81694,0 -1.52163,-0.26151 -2.11367,-0.78453 -0.61368,-0.49861 -0.92087,-1.15411 -0.92087,-1.97003 0,-0.70781 0.2507,-1.29708 0.7521,-1.77129 0.49756,-0.5021 1.09868,-0.75313 1.80303,-0.75313"
       id="path10264"
       style="fill:#00efe8;fill-opacity:1;stroke:#00e9f4;stroke-width:0.34867847;stroke-opacity:1" />
    <path
       inkscape:connector-curvature="0"
       class="Rest"
       d="m 541.11816,186.89543 c 0.68341,0 1.17156,0.1813 1.46446,0.54393 0.3173,0.39053 0.50906,0.77756 0.5788,1.1611 0.0209,0.38703 0.13598,0.77058 0.3417,1.15413 0.13599,0.36611 0.38355,0.54743 0.74618,0.54743 0.23012,0 0.57184,-0.27197 1.02511,-0.8194 0.51953,-0.6346 0.84728,-1.08788 0.98676,-1.35986 0.11159,-0.22663 0.26848,-0.33821 0.47421,-0.33821 0,0 0.0104,0 0.0384,0 0.20223,0.0209 0.34867,0.1325 0.43932,0.33821 l -6.23087,23.36146 c -0.22665,0.22664 -0.54394,0.34171 -0.9519,0.34171 -0.40795,0 -0.72874,-0.11507 -0.95537,-0.34171 l 3.5077,-11.40876 c -1.52023,0.54395 -2.75805,0.81591 -3.70994,0.81591 -0.81589,0 -1.52373,-0.25802 -2.11299,-0.77755 -0.61367,-0.5021 -0.92051,-1.1611 -0.92051,-1.97702 0,-0.7078 0.2371,-1.29708 0.7113,-1.77127 0.50209,-0.49862 1.10531,-0.74617 1.80964,-0.74617 0.67993,0 1.16808,0.18131 1.46445,0.54393 0.33822,0.38356 0.54395,0.77058 0.6102,1.15413 0.0697,0.45327 0.18479,0.84031 0.34518,1.1611 0.15691,0.36262 0.40447,0.54394 0.74617,0.54394 0.27197,0 0.659,-0.3173 1.16111,-0.9519 0.51953,-0.59274 0.83683,-1.05998 0.95189,-1.40167 l 1.59695,-5.27901 c -1.454,0.52302 -2.6674,0.78453 -3.64021,0.78453 -0.81591,0 -1.52024,-0.26151 -2.11299,-0.78453 -0.61367,-0.49861 -0.92052,-1.15411 -0.92052,-1.97003 0,-0.70781 0.25106,-1.29708 0.74967,-1.77129 0.4986,-0.5021 1.10181,-0.75313 1.80615,-0.75313"
       id="path10266"
       style="fill:#00efe8;fill-opacity:1;stroke:#00e9f4;stroke-width:0.34867847;stroke-opacity:1" />
    <path
       inkscape:connector-curvature="0"
       class="Rest"
       d="m 561.21251,186.89543 c 0.65551,0 1.1576,0.1813 1.49931,0.54393 0.33822,0.41144 0.52302,0.79847 0.54394,1.1611 0.0454,0.3417 0.16039,0.72874 0.34171,1.15413 0.20571,0.36611 0.46374,0.54743 0.78104,0.54743 0.25103,0 0.62414,-0.28592 1.12623,-0.85078 0.45328,-0.4986 0.78452,-0.94144 0.98675,-1.32848 0.11158,-0.22663 0.27198,-0.33821 0.47421,-0.33821 l 0.0383,0 c 0.22315,0.0209 0.38355,0.1325 0.47421,0.33821 l -4.28875,14.6445 c -0.23013,0.22665 -0.54743,0.3417 -0.95538,0.3417 -0.40796,0 -0.72525,-0.11505 -0.95189,-0.3417 l 4.08651,-11.37738 c -1.45399,0.52302 -2.67785,0.78453 -3.67856,0.78453 -0.81591,0 -1.52023,-0.26151 -2.11298,-0.78453 -0.61369,-0.49861 -0.92052,-1.15411 -0.92052,-1.97003 0,-0.70781 0.25105,-1.29709 0.75314,-1.77129 0.49512,-0.5021 1.09834,-0.75313 1.80269,-0.75313"
       id="path10268"
       style="fill:#00efe8;fill-opacity:1;stroke:#00e9f4;stroke-width:0.34867847;stroke-opacity:1" />
    <path
       inkscape:connector-curvature="0"
       class="Beam"
       d="m 294.73954,198.39832 23.13482,2.29083 0,4.37939 -23.13482,-2.29082 0,-4.3794"
       id="path10508"
       style="fill:#00efe8;fill-opacity:1;fill-rule:evenodd;stroke:#00e9f4;stroke-width:0.34867847;stroke-opacity:1" />
    <path
       inkscape:connector-curvature="0"
       class="Beam"
       d="m 294.73954,191.86061 23.13482,2.29081 0,4.3794 -23.13482,-2.29081 0,-4.3794"
       id="path10510"
       style="fill:#00efe8;fill-opacity:1;fill-rule:evenodd;stroke:#00e9f4;stroke-width:0.34867847;stroke-opacity:1" />
    <path
       inkscape:connector-curvature="0"
       class="Beam"
       d="m 338.74311,207.12573 67.13838,0 0,4.35849 -67.13838,0 0,-4.35849"
       id="path10512"
       style="fill:#00efe8;fill-opacity:1;fill-rule:evenodd;stroke:#00e9f4;stroke-width:0.34867847;stroke-opacity:1" />
    <path
       inkscape:connector-curvature="0"
       class="Beam"
       d="m 338.74311,200.58802 67.13838,0 0,4.35849 -67.13838,0 0,-4.35849"
       id="path10514"
       style="fill:#00efe8;fill-opacity:1;fill-rule:evenodd;stroke:#00e9f4;stroke-width:0.34867847;stroke-opacity:1" />
    <path
       inkscape:connector-curvature="0"
       class="Beam"
       d="m 426.7499,217.99057 67.13979,-11.08101 0,4.41426 -67.13979,11.0845 0,-4.41775"
       id="path10516"
       style="fill:#00efe8;fill-opacity:1;fill-rule:evenodd;stroke:#00e9f4;stroke-width:0.34867847;stroke-opacity:1" />
    <path
       inkscape:connector-curvature="0"
       class="Beam"
       d="m 426.7499,211.45284 67.13979,-11.081 0,4.41427 -67.13979,11.08448 0,-4.41775"
       id="path10518"
       style="fill:#00efe8;fill-opacity:1;fill-rule:evenodd;stroke:#00e9f4;stroke-width:0.34867847;stroke-opacity:1" />
    <path
       inkscape:connector-curvature="0"
       class="Hook"
       d="m 262.16879,172.2579 c 0,1.1576 0.25071,2.31522 0.75176,3.47632 0.47593,1.1332 1.06624,2.20714 1.77093,3.22878 l 2.04291,2.99514 c 0.67922,0.93445 1.26953,2.01536 1.77058,3.23922 0.49758,1.1367 0.74652,2.28037 0.74652,3.43796 0,1.06696 -0.27267,2.17925 -0.8173,3.33685 0.68271,1.38427 1.02406,2.73715 1.02406,4.05513 0,2.08859 -0.48849,4.22251 -1.46548,6.40173 -0.18132,0.27199 -0.3975,0.40797 -0.64819,0.40797 -0.22525,0 -0.42854,-0.0907 -0.61019,-0.27197 -0.13809,-0.13948 -0.20712,-0.31033 -0.20712,-0.51256 0,0 0,-0.0558 0,-0.16737 0.977,-1.93517 1.4655,-3.88776 1.4655,-5.8578 0,-0.88563 -0.1705,-1.70502 -0.51186,-2.4512 -0.40691,-0.88565 -0.90622,-1.70504 -1.49828,-2.45121 -0.74826,-0.97979 -1.33857,-1.68412 -1.77058,-2.11648 -0.58857,-0.58577 -1.26953,-1.23431 -2.04326,-1.93865 l 0,2.62206 -1.08963,0 0,-17.43392 1.08963,0 m 5.34454,18.00924 c 0.16004,-0.47419 0.23989,-1.01813 0.23989,-1.63182 0,-0.79498 -0.15795,-1.59694 -0.4742,-2.41633 -0.34136,-0.81592 -0.8187,-1.64576 -1.43272,-2.48957 -0.5666,-0.70084 -1.14575,-1.39123 -1.73781,-2.07464 -0.45398,-0.49861 -1.10079,-1.15412 -1.9397,-1.97351 0,0.93097 0.19247,1.91772 0.57741,2.96027 0.41074,0.9763 0.83194,1.82708 1.26396,2.55582 0.49791,0.77058 1.10984,1.64576 1.83614,2.62206 0.7263,0.97629 1.28209,1.79221 1.66703,2.44771"
       id="path10658"
       style="fill:#00efe8;fill-opacity:1;stroke:#00e9f4;stroke-width:0.34867847;stroke-opacity:1" />
    <path
       inkscape:connector-curvature="0"
       class="Hook"
       d="m 515.84596,204.50367 c 0.91005,-0.523 1.77128,-1.05648 2.58718,-1.60043 0.86473,-0.61367 1.63879,-1.22735 2.31523,-1.84101 0.8194,-0.74966 1.44353,-1.52025 1.87589,-2.31523 0.45328,-0.86124 0.67993,-1.71201 0.67993,-2.55233 0,-0.79497 -0.1604,-1.60043 -0.47769,-2.41634 -0.24757,0.31382 -0.98677,1.04254 -2.21411,2.17924 -0.92749,0.85775 -1.72248,1.64228 -2.378,2.34661 -0.59275,0.63459 -1.14016,1.42957 -1.6353,2.38496 -0.50208,0.9763 -0.75313,1.95957 -0.75313,2.96028 l 0,0.85425 m 9.36549,-16.14379 c 0,1.36333 -0.43236,2.7162 -1.29708,4.05512 0.57184,1.20294 0.85775,2.46168 0.85775,3.77968 0,1.11228 -0.31032,2.23503 -0.924,3.36823 -0.65551,1.22735 -1.39471,2.22456 -2.21062,2.99515 l -2.65692,2.58719 c -0.88914,0.91005 -1.62485,1.89681 -2.21411,2.96376 -0.61368,1.09138 -0.92051,2.21412 -0.92051,3.37521 l -1.08788,0 0,-17.43391 1.08788,0 0,2.61858 c 5.26852,-2.74411 7.90105,-5.5161 7.90105,-8.30901 0,-0.61368 -0.1604,-1.32846 -0.47421,-2.14438 0,0 0,-0.0454 0,-0.13599 0,-0.18131 0.0662,-0.36262 0.20224,-0.54741 0.1813,-0.18133 0.38703,-0.27198 0.61367,-0.27198 0.22665,0 0.42889,0.13599 0.61018,0.41144 0.20573,0.36263 0.31731,0.71479 0.3452,1.0565 0.0209,0.16039 0.0418,0.36263 0.0627,0.61367 l 0.0733,0.3696 c 0.0209,0.16039 0.0313,0.37657 0.0313,0.64855"
       id="path10660"
       style="fill:#00efe8;fill-opacity:1;stroke:#00e9f4;stroke-width:0.34867847;stroke-opacity:1" />
  </g>
</svg>
