<?xml version="1.0" encoding="UTF-8" standalone="no"?>
<svg width="2977.2px" height="4208.4px" viewBox="0 0 2977.2 4208.4"
 xmlns="http://www.w3.org/2000/svg" xmlns:xlink="http://www.w3.org/1999/xlink" version="1.2" baseProfile="tiny">
<title>Untitled-2</title>
<desc>Generated by MuseScore 3.2.1</desc>
<polyline class="StaffLines" fill="none" stroke="#000000" stroke-width="2.00" stroke-linejoin="bevel" points="141.732,316.732 2835.47,316.732"/>
<polyline class="StaffLines" fill="none" stroke="#000000" stroke-width="2.00" stroke-linejoin="bevel" points="141.732,341.732 2835.47,341.732"/>
<polyline class="StaffLines" fill="none" stroke="#000000" stroke-width="2.00" stroke-linejoin="bevel" points="141.732,366.732 2835.47,366.732"/>
<polyline class="StaffLines" fill="none" stroke="#000000" stroke-width="2.00" stroke-linejoin="bevel" points="141.732,391.732 2835.47,391.732"/>
<polyline class="StaffLines" fill="none" stroke="#000000" stroke-width="2.00" stroke-linejoin="bevel" points="141.732,416.732 2835.47,416.732"/>
<polyline class="BarLine" fill="none" stroke="#000000" stroke-width="4.00" stroke-linejoin="bevel" points="1614.38,315.732 1614.38,417.732"/>
<polyline class="BarLine" fill="none" stroke="#000000" stroke-width="4.00" stroke-linejoin="bevel" points="2810.97,315.732 2810.97,417.732"/>
<polyline class="BarLine" fill="none" stroke="#000000" stroke-width="12.50" stroke-linejoin="bevel" points="2829.22,315.732 2829.22,417.732"/>
<polyline class="LedgerLine" fill="none" stroke="#000000" stroke-width="4.00" stroke-linecap="square" stroke-linejoin="bevel" points="341.904,441.732 389.818,441.732"/>
<polyline class="LedgerLine" fill="none" stroke="#000000" stroke-width="4.00" stroke-linecap="square" stroke-linejoin="bevel" points="2373.9,441.732 2421.81,441.732"/>
<polyline class="LedgerLine" fill="none" stroke="#000000" stroke-width="4.00" stroke-linecap="square" stroke-linejoin="bevel" points="2538.35,441.732 2586.26,441.732"/>
<polyline class="LedgerLine" fill="none" stroke="#000000" stroke-width="4.00" stroke-linecap="square" stroke-linejoin="bevel" points="2620.57,441.732 2668.49,441.732"/>
<polyline class="Stem" fill="none" stroke="#000000" stroke-width="3.25" stroke-linecap="round" stroke-linejoin="bevel" points="380.693,437.037 380.693,347.982"/>
<polyline class="Stem" fill="none" stroke="#000000" stroke-width="3.25" stroke-linecap="round" stroke-linejoin="bevel" points="459.629,412.037 459.629,339.649"/>
<polyline class="Stem" fill="none" stroke="#000000" stroke-width="3.25" stroke-linecap="round" stroke-linejoin="bevel" points="538.566,424.537 538.566,331.316"/>
<polyline class="Stem" fill="none" stroke="#000000" stroke-width="3.25" stroke-linecap="round" stroke-linejoin="bevel" points="617.502,399.537 617.502,322.982"/>
<polyline class="Stem" fill="none" stroke="#000000" stroke-width="3.25" stroke-linecap="round" stroke-linejoin="bevel" points="696.438,412.037 696.438,322.982"/>
<polyline class="Stem" fill="none" stroke="#000000" stroke-width="3.25" stroke-linecap="round" stroke-linejoin="bevel" points="775.374,387.037 775.374,314.649"/>
<polyline class="Stem" fill="none" stroke="#000000" stroke-width="3.25" stroke-linecap="round" stroke-linejoin="bevel" points="854.31,399.537 854.31,306.316"/>
<polyline class="Stem" fill="none" stroke="#000000" stroke-width="3.25" stroke-linecap="round" stroke-linejoin="bevel" points="933.246,374.537 933.246,297.982"/>
<polyline class="Stem" fill="none" stroke="#000000" stroke-width="3.25" stroke-linecap="round" stroke-linejoin="bevel" points="1012.18,387.037 1012.18,297.982"/>
<polyline class="Stem" fill="none" stroke="#000000" stroke-width="3.25" stroke-linecap="round" stroke-linejoin="bevel" points="1091.12,362.037 1091.12,289.649"/>
<polyline class="Stem" fill="none" stroke="#000000" stroke-width="3.25" stroke-linecap="round" stroke-linejoin="bevel" points="1170.05,374.537 1170.05,281.316"/>
<polyline class="Stem" fill="none" stroke="#000000" stroke-width="3.25" stroke-linecap="round" stroke-linejoin="bevel" points="1248.99,349.537 1248.99,272.982"/>
<polyline class="Stem" fill="none" stroke="#000000" stroke-width="3.25" stroke-linecap="round" stroke-linejoin="bevel" points="1298.26,371.428 1298.26,460.482"/>
<polyline class="Stem" fill="none" stroke="#000000" stroke-width="3.25" stroke-linecap="round" stroke-linejoin="bevel" points="1377.2,346.428 1377.2,462.566"/>
<polyline class="Stem" fill="none" stroke="#000000" stroke-width="3.25" stroke-linecap="round" stroke-linejoin="bevel" points="1456.13,358.928 1456.13,464.649"/>
<polyline class="Stem" fill="none" stroke="#000000" stroke-width="3.25" stroke-linecap="round" stroke-linejoin="bevel" points="1535.07,383.928 1535.07,466.732"/>
<polyline class="Stem" fill="none" stroke="#000000" stroke-width="3.25" stroke-linecap="round" stroke-linejoin="bevel" points="1672.67,362.037 1672.67,272.982"/>
<polyline class="Stem" fill="none" stroke="#000000" stroke-width="3.25" stroke-linecap="round" stroke-linejoin="bevel" points="1754.89,387.037 1754.89,281.316"/>
<polyline class="Stem" fill="none" stroke="#000000" stroke-width="3.25" stroke-linecap="round" stroke-linejoin="bevel" points="1837.12,374.537 1837.12,289.649"/>
<polyline class="Stem" fill="none" stroke="#000000" stroke-width="3.25" stroke-linecap="round" stroke-linejoin="bevel" points="1919.34,399.537 1919.34,297.982"/>
<polyline class="Stem" fill="none" stroke="#000000" stroke-width="3.25" stroke-linecap="round" stroke-linejoin="bevel" points="2001.57,387.037 2001.57,297.982"/>
<polyline class="Stem" fill="none" stroke="#000000" stroke-width="3.25" stroke-linecap="round" stroke-linejoin="bevel" points="2083.79,412.037 2083.79,306.316"/>
<polyline class="Stem" fill="none" stroke="#000000" stroke-width="3.25" stroke-linecap="round" stroke-linejoin="bevel" points="2166.02,399.537 2166.02,314.649"/>
<polyline class="Stem" fill="none" stroke="#000000" stroke-width="3.25" stroke-linecap="round" stroke-linejoin="bevel" points="2248.24,424.537 2248.24,322.982"/>
<polyline class="Stem" fill="none" stroke="#000000" stroke-width="3.25" stroke-linecap="round" stroke-linejoin="bevel" points="2330.47,412.037 2330.47,322.982"/>
<polyline class="Stem" fill="none" stroke="#000000" stroke-width="3.25" stroke-linecap="round" stroke-linejoin="bevel" points="2412.69,437.037 2412.69,331.316"/>
<polyline class="Stem" fill="none" stroke="#000000" stroke-width="3.25" stroke-linecap="round" stroke-linejoin="bevel" points="2494.91,424.537 2494.91,339.649"/>
<polyline class="Stem" fill="none" stroke="#000000" stroke-width="3.25" stroke-linecap="round" stroke-linejoin="bevel" points="2577.14,449.537 2577.14,347.982"/>
<polyline class="Stem" fill="none" stroke="#000000" stroke-width="3.25" stroke-linecap="round" stroke-linejoin="bevel" points="2659.36,437.037 2659.36,354.232"/>
<path class="Note" d="M371.373,427.967 C374.498,427.967 377.139,428.779 379.295,430.404 C381.305,432.165 382.311,434.378 382.311,437.045 C382.311,441.535 380.003,445.732 375.389,449.639 C370.701,453.545 365.686,455.498 360.342,455.498 C357.217,455.498 354.581,454.686 352.436,453.061 C350.415,451.3 349.404,449.087 349.404,446.42 C349.404,441.93 351.748,437.732 356.436,433.826 C360.998,429.92 365.977,427.967 371.373,427.967"/>
<path class="Note" d="M450.309,402.967 C453.434,402.967 456.075,403.779 458.231,405.404 C460.241,407.165 461.247,409.378 461.247,412.045 C461.247,416.535 458.939,420.732 454.325,424.639 C449.637,428.545 444.622,430.498 439.278,430.498 C436.153,430.498 433.517,429.686 431.372,428.061 C429.351,426.3 428.34,424.087 428.34,421.42 C428.34,416.93 430.684,412.732 435.372,408.826 C439.934,404.92 444.913,402.967 450.309,402.967"/>
<path class="Note" d="M529.245,415.467 C532.37,415.467 535.011,416.279 537.167,417.904 C539.177,419.665 540.183,421.878 540.183,424.545 C540.183,429.035 537.875,433.232 533.261,437.139 C528.573,441.045 523.558,442.998 518.214,442.998 C515.089,442.998 512.454,442.186 510.308,440.561 C508.287,438.8 507.276,436.587 507.276,433.92 C507.276,429.43 509.62,425.232 514.308,421.326 C518.87,417.42 523.849,415.467 529.245,415.467"/>
<path class="Note" d="M608.181,390.467 C611.306,390.467 613.947,391.279 616.103,392.904 C618.114,394.665 619.119,396.878 619.119,399.545 C619.119,404.035 616.811,408.232 612.197,412.139 C607.509,416.045 602.494,417.998 597.15,417.998 C594.025,417.998 591.39,417.186 589.244,415.561 C587.223,413.8 586.212,411.587 586.212,408.92 C586.212,404.43 588.556,400.232 593.244,396.326 C597.806,392.42 602.785,390.467 608.181,390.467"/>
<path class="Note" d="M687.117,402.967 C690.242,402.967 692.883,403.779 695.039,405.404 C697.05,407.165 698.055,409.378 698.055,412.045 C698.055,416.535 695.748,420.732 691.133,424.639 C686.445,428.545 681.43,430.498 676.086,430.498 C672.961,430.498 670.326,429.686 668.18,428.061 C666.159,426.3 665.149,424.087 665.149,421.42 C665.149,416.93 667.492,412.732 672.18,408.826 C676.742,404.92 681.721,402.967 687.117,402.967"/>
<path class="Note" d="M766.053,377.967 C769.178,377.967 771.819,378.779 773.975,380.404 C775.986,382.165 776.991,384.378 776.991,387.045 C776.991,391.535 774.684,395.732 770.069,399.639 C765.381,403.545 760.366,405.498 755.022,405.498 C751.897,405.498 749.262,404.686 747.116,403.061 C745.095,401.3 744.085,399.087 744.085,396.42 C744.085,391.93 746.428,387.732 751.116,383.826 C755.678,379.92 760.658,377.967 766.053,377.967"/>
<path class="Note" d="M844.989,390.467 C848.114,390.467 850.755,391.279 852.911,392.904 C854.922,394.665 855.927,396.878 855.927,399.545 C855.927,404.035 853.62,408.232 849.005,412.139 C844.318,416.045 839.302,417.998 833.958,417.998 C830.833,417.998 828.198,417.186 826.052,415.561 C824.031,413.8 823.021,411.587 823.021,408.92 C823.021,404.43 825.364,400.232 830.052,396.326 C834.614,392.42 839.594,390.467 844.989,390.467"/>
<path class="Note" d="M923.925,365.467 C927.05,365.467 929.691,366.279 931.847,367.904 C933.858,369.665 934.863,371.878 934.863,374.545 C934.863,379.035 932.556,383.232 927.941,387.139 C923.254,391.045 918.238,392.998 912.894,392.998 C909.769,392.998 907.134,392.186 904.988,390.561 C902.967,388.8 901.957,386.587 901.957,383.92 C901.957,379.43 904.3,375.232 908.988,371.326 C913.55,367.42 918.53,365.467 923.925,365.467"/>
<path class="Note" d="M1002.86,377.967 C1005.99,377.967 1008.63,378.779 1010.78,380.404 C1012.79,382.165 1013.8,384.378 1013.8,387.045 C1013.8,391.535 1011.49,395.732 1006.88,399.639 C1002.19,403.545 997.174,405.498 991.83,405.498 C988.705,405.498 986.07,404.686 983.924,403.061 C981.903,401.3 980.893,399.087 980.893,396.42 C980.893,391.93 983.237,387.732 987.924,383.826 C992.487,379.92 997.466,377.967 1002.86,377.967"/>
<path class="Note" d="M1081.8,352.967 C1084.92,352.967 1087.56,353.779 1089.72,355.404 C1091.73,357.165 1092.74,359.378 1092.74,362.045 C1092.74,366.535 1090.43,370.732 1085.81,374.639 C1081.13,378.545 1076.11,380.498 1070.77,380.498 C1067.64,380.498 1065.01,379.686 1062.86,378.061 C1060.84,376.3 1059.83,374.087 1059.83,371.42 C1059.83,366.93 1062.17,362.732 1066.86,358.826 C1071.42,354.92 1076.4,352.967 1081.8,352.967"/>
<path class="Note" d="M1160.73,365.467 C1163.86,365.467 1166.5,366.279 1168.66,367.904 C1170.67,369.665 1171.67,371.878 1171.67,374.545 C1171.67,379.035 1169.36,383.232 1164.75,387.139 C1160.06,391.045 1155.05,392.998 1149.7,392.998 C1146.58,392.998 1143.94,392.186 1141.8,390.561 C1139.78,388.8 1138.76,386.587 1138.76,383.92 C1138.76,379.43 1141.11,375.232 1145.8,371.326 C1150.36,367.42 1155.34,365.467 1160.73,365.467"/>
<path class="Note" d="M1239.67,340.467 C1242.79,340.467 1245.44,341.279 1247.59,342.904 C1249.6,344.665 1250.61,346.878 1250.61,349.545 C1250.61,354.035 1248.3,358.232 1243.69,362.139 C1239,366.045 1233.98,367.998 1228.64,367.998 C1225.51,367.998 1222.88,367.186 1220.73,365.561 C1218.71,363.8 1217.7,361.587 1217.7,358.92 C1217.7,354.43 1220.04,350.232 1224.73,346.326 C1229.29,342.42 1234.27,340.467 1239.67,340.467"/>
<path class="Note" d="M1318.61,352.967 C1321.73,352.967 1324.37,353.779 1326.53,355.404 C1328.54,357.165 1329.54,359.378 1329.54,362.045 C1329.54,366.535 1327.24,370.732 1322.62,374.639 C1317.93,378.545 1312.92,380.498 1307.57,380.498 C1304.45,380.498 1301.81,379.686 1299.67,378.061 C1297.65,376.3 1296.64,374.087 1296.64,371.42 C1296.64,366.93 1298.98,362.732 1303.67,358.826 C1308.23,354.92 1313.21,352.967 1318.61,352.967"/>
<path class="Note" d="M1397.54,327.967 C1400.67,327.967 1403.31,328.779 1405.46,330.404 C1407.47,332.165 1408.48,334.378 1408.48,337.045 C1408.48,341.534 1406.17,345.732 1401.56,349.639 C1396.87,353.545 1391.85,355.498 1386.51,355.498 C1383.39,355.498 1380.75,354.686 1378.6,353.061 C1376.58,351.3 1375.57,349.087 1375.57,346.42 C1375.57,341.93 1377.92,337.732 1382.6,333.826 C1387.17,329.92 1392.15,327.967 1397.54,327.967"/>
<path class="Note" d="M1476.48,340.467 C1479.6,340.467 1482.24,341.279 1484.4,342.904 C1486.41,344.665 1487.42,346.878 1487.42,349.545 C1487.42,354.035 1485.11,358.232 1480.49,362.139 C1475.81,366.045 1470.79,367.998 1465.45,367.998 C1462.32,367.998 1459.69,367.186 1457.54,365.561 C1455.52,363.8 1454.51,361.587 1454.51,358.92 C1454.51,354.43 1456.85,350.232 1461.54,346.326 C1466.1,342.42 1471.08,340.467 1476.48,340.467"/>
<path class="Note" d="M1555.41,365.467 C1558.54,365.467 1561.18,366.279 1563.34,367.904 C1565.35,369.665 1566.35,371.878 1566.35,374.545 C1566.35,379.035 1564.04,383.232 1559.43,387.139 C1554.74,391.045 1549.73,392.998 1544.38,392.998 C1541.26,392.998 1538.62,392.186 1536.48,390.561 C1534.46,388.8 1533.45,386.587 1533.45,383.92 C1533.45,379.43 1535.79,375.232 1540.48,371.326 C1545.04,367.42 1550.02,365.467 1555.41,365.467"/>
<path class="Note" d="M1663.35,352.967 C1666.48,352.967 1669.12,353.779 1671.27,355.404 C1673.28,357.165 1674.29,359.378 1674.29,362.045 C1674.29,366.535 1671.98,370.732 1667.37,374.639 C1662.68,378.545 1657.66,380.498 1652.32,380.498 C1649.19,380.498 1646.56,379.686 1644.41,378.061 C1642.39,376.3 1641.38,374.087 1641.38,371.42 C1641.38,366.93 1643.73,362.732 1648.41,358.826 C1652.98,354.92 1657.95,352.967 1663.35,352.967"/>
<path class="Note" d="M1745.57,377.967 C1748.7,377.967 1751.34,378.779 1753.5,380.404 C1755.51,382.165 1756.51,384.378 1756.51,387.045 C1756.51,391.535 1754.2,395.732 1749.59,399.639 C1744.9,403.545 1739.89,405.498 1734.54,405.498 C1731.42,405.498 1728.78,404.686 1726.64,403.061 C1724.62,401.3 1723.61,399.087 1723.61,396.42 C1723.61,391.93 1725.95,387.732 1730.64,383.826 C1735.2,379.92 1740.18,377.967 1745.57,377.967"/>
<path class="Note" d="M1827.8,365.467 C1830.92,365.467 1833.56,366.279 1835.72,367.904 C1837.73,369.665 1838.74,371.878 1838.74,374.545 C1838.74,379.035 1836.43,383.232 1831.81,387.139 C1827.13,391.045 1822.11,392.998 1816.77,392.998 C1813.64,392.998 1811.01,392.186 1808.86,390.561 C1806.84,388.8 1805.83,386.587 1805.83,383.92 C1805.83,379.43 1808.17,375.232 1812.86,371.326 C1817.42,367.42 1822.4,365.467 1827.8,365.467"/>
<path class="Note" d="M1910.02,390.467 C1913.15,390.467 1915.79,391.279 1917.95,392.904 C1919.96,394.665 1920.96,396.878 1920.96,399.545 C1920.96,404.035 1918.65,408.232 1914.04,412.139 C1909.35,416.045 1904.34,417.998 1898.99,417.998 C1895.87,417.998 1893.23,417.186 1891.09,415.561 C1889.06,413.8 1888.05,411.587 1888.05,408.92 C1888.05,404.43 1890.4,400.232 1895.09,396.326 C1899.65,392.42 1904.63,390.467 1910.02,390.467"/>
<path class="Note" d="M1992.25,377.967 C1995.37,377.967 1998.01,378.779 2000.17,380.404 C2002.18,382.165 2003.19,384.378 2003.19,387.045 C2003.19,391.535 2000.88,395.732 1996.26,399.639 C1991.58,403.545 1986.56,405.498 1981.22,405.498 C1978.09,405.498 1975.46,404.686 1973.31,403.061 C1971.29,401.3 1970.28,399.087 1970.28,396.42 C1970.28,391.93 1972.62,387.732 1977.31,383.826 C1981.87,379.92 1986.85,377.967 1992.25,377.967"/>
<path class="Note" d="M2074.47,402.967 C2077.6,402.967 2080.24,403.779 2082.39,405.404 C2084.4,407.165 2085.41,409.378 2085.41,412.045 C2085.41,416.535 2083.1,420.732 2078.49,424.639 C2073.8,428.545 2068.78,430.498 2063.44,430.498 C2060.32,430.498 2057.68,429.686 2055.53,428.061 C2053.51,426.3 2052.5,424.087 2052.5,421.42 C2052.5,416.93 2054.85,412.732 2059.53,408.826 C2064.1,404.92 2069.08,402.967 2074.47,402.967"/>
<path class="Note" d="M2156.7,390.467 C2159.82,390.467 2162.46,391.279 2164.62,392.904 C2166.63,394.665 2167.63,396.878 2167.63,399.545 C2167.63,404.035 2165.33,408.232 2160.71,412.139 C2156.02,416.045 2151.01,417.998 2145.67,417.998 C2142.54,417.998 2139.9,417.186 2137.76,415.561 C2135.74,413.8 2134.73,411.587 2134.73,408.92 C2134.73,404.43 2137.07,400.232 2141.76,396.326 C2146.32,392.42 2151.3,390.467 2156.7,390.467"/>
<path class="Note" d="M2238.92,415.467 C2242.05,415.467 2244.69,416.279 2246.84,417.904 C2248.85,419.665 2249.86,421.878 2249.86,424.545 C2249.86,429.035 2247.55,433.232 2242.94,437.139 C2238.25,441.045 2233.23,442.998 2227.89,442.998 C2224.76,442.998 2222.13,442.186 2219.98,440.561 C2217.96,438.8 2216.95,436.587 2216.95,433.92 C2216.95,429.43 2219.3,425.232 2223.98,421.326 C2228.55,417.42 2233.53,415.467 2238.92,415.467"/>
<path class="Note" d="M2321.15,402.967 C2324.27,402.967 2326.91,403.779 2329.07,405.404 C2331.08,407.165 2332.08,409.378 2332.08,412.045 C2332.08,416.535 2329.78,420.732 2325.16,424.639 C2320.47,428.545 2315.46,430.498 2310.11,430.498 C2306.99,430.498 2304.35,429.686 2302.21,428.061 C2300.19,426.3 2299.18,424.087 2299.18,421.42 C2299.18,416.93 2301.52,412.732 2306.21,408.826 C2310.77,404.92 2315.75,402.967 2321.15,402.967"/>
<path class="Note" d="M2403.37,427.967 C2406.49,427.967 2409.14,428.779 2411.29,430.404 C2413.3,432.165 2414.31,434.378 2414.31,437.045 C2414.31,441.535 2412,445.732 2407.39,449.639 C2402.7,453.545 2397.68,455.498 2392.34,455.498 C2389.21,455.498 2386.58,454.686 2384.43,453.061 C2382.41,451.3 2381.4,449.087 2381.4,446.42 C2381.4,441.93 2383.74,437.732 2388.43,433.826 C2392.99,429.92 2397.97,427.967 2403.37,427.967"/>
<path class="Note" d="M2485.59,415.467 C2488.72,415.467 2491.36,416.279 2493.52,417.904 C2495.53,419.665 2496.53,421.878 2496.53,424.545 C2496.53,429.035 2494.22,433.232 2489.61,437.139 C2484.92,441.045 2479.91,442.998 2474.56,442.998 C2471.44,442.998 2468.8,442.186 2466.66,440.561 C2464.64,438.8 2463.63,436.587 2463.63,433.92 C2463.63,429.43 2465.97,425.232 2470.66,421.326 C2475.22,417.42 2480.2,415.467 2485.59,415.467"/>
<path class="Note" d="M2567.82,440.467 C2570.94,440.467 2573.58,441.279 2575.74,442.904 C2577.75,444.665 2578.76,446.878 2578.76,449.545 C2578.76,454.035 2576.45,458.232 2571.83,462.139 C2567.15,466.045 2562.13,467.998 2556.79,467.998 C2553.66,467.998 2551.03,467.186 2548.88,465.561 C2546.86,463.8 2545.85,461.587 2545.85,458.92 C2545.85,454.43 2548.19,450.232 2552.88,446.326 C2557.44,442.42 2562.42,440.467 2567.82,440.467"/>
<path class="Note" d="M2650.04,427.967 C2653.17,427.967 2655.81,428.779 2657.96,430.404 C2659.98,432.165 2660.98,434.378 2660.98,437.045 C2660.98,441.535 2658.67,445.732 2654.06,449.639 C2649.37,453.545 2644.36,455.498 2639.01,455.498 C2635.89,455.498 2633.25,454.686 2631.11,453.061 C2629.08,451.3 2628.07,449.087 2628.07,446.42 C2628.07,441.93 2630.42,437.732 2635.11,433.826 C2639.67,429.92 2644.65,427.967 2650.04,427.967"/>
<path class="Clef" d="M198.451,366.139 C198.451,366.139 198.649,366.139 199.045,366.139 C199.305,366.076 199.529,366.045 199.717,366.045 C207.008,366.045 212.998,368.618 217.685,373.764 C222.373,378.837 224.717,384.758 224.717,391.529 C224.717,399.936 221.238,406.774 214.279,412.045 C212.456,413.482 210.076,414.654 207.139,415.561 C207.472,419.79 207.639,423.206 207.639,425.811 C207.639,426.331 207.571,428.222 207.435,431.482 C207.175,437.535 205.092,442.774 201.185,447.201 C197.415,451.566 192.727,453.748 187.123,453.748 C181.852,453.748 177.363,451.894 173.654,448.186 C169.935,444.404 168.076,439.847 168.076,434.514 C168.076,431.712 169.154,429.331 171.31,427.373 C173.519,425.425 176.086,424.451 179.014,424.451 C181.618,424.451 183.8,425.462 185.56,427.482 C187.383,429.368 188.295,431.712 188.295,434.514 C188.295,437.045 187.383,439.222 185.56,441.045 C183.738,442.868 181.555,443.779 179.014,443.779 C177.972,443.779 176.967,443.587 175.998,443.201 C178.863,447.43 182.67,449.545 187.42,449.545 C191.909,449.545 195.586,447.722 198.451,444.076 C201.451,440.305 203.081,435.91 203.342,430.889 C203.467,427.764 203.529,425.977 203.529,425.529 C203.529,421.883 203.399,418.889 203.139,416.545 C199.889,417.066 196.993,417.326 194.451,417.326 C185.399,417.326 177.685,413.743 171.31,406.576 C165.06,399.347 161.935,390.753 161.935,380.795 C161.935,378.712 162.128,376.597 162.514,374.451 C162.909,372.691 163.399,370.769 163.982,368.686 C164.305,367.508 165.185,365.618 166.623,363.014 C167.144,362.232 167.73,361.256 168.381,360.084 C169.032,358.912 169.488,358.133 169.748,357.748 C170.394,356.446 171.659,354.686 173.545,352.467 C174.066,351.883 174.605,351.235 175.162,350.522 C175.719,349.808 176.193,349.222 176.584,348.764 C176.974,348.305 177.266,347.946 177.459,347.686 C177.652,347.425 179.118,345.701 181.857,342.514 C182.503,341.857 183.136,341.157 183.756,340.412 C184.376,339.667 184.881,339.081 185.271,338.654 C185.662,338.227 185.956,337.92 186.154,337.732 C183.81,329.982 182.342,323.795 181.748,319.17 C181.3,315.462 181.076,310.383 181.076,303.936 C181.076,298.269 182.378,292.962 184.982,288.014 C187.514,282.878 191.06,278.68 195.623,275.42 C195.883,275.222 196.206,275.123 196.592,275.123 C197.05,275.123 197.378,275.222 197.576,275.42 C201.086,279.649 204.113,285.149 206.654,291.92 C209.258,298.691 210.56,304.847 210.56,310.389 C210.56,316.639 209.066,322.498 206.076,327.967 C202.691,333.758 198.326,339.748 192.982,345.936 C194.347,350.227 196.17,356.962 198.451,366.139 M206.748,411.561 C210.133,410.321 212.774,408.206 214.67,405.217 C216.753,402.352 217.795,399.128 217.795,395.545 C217.795,390.92 216.232,386.816 213.107,383.232 C209.909,379.524 205.836,377.441 200.889,376.982 C203.691,390.722 205.644,402.248 206.748,411.561 M168.967,388.998 C168.967,395.446 171.571,401.113 176.779,405.998 C182.113,410.748 188.102,413.123 194.748,413.123 C197.477,413.123 200.144,412.925 202.748,412.529 C201.706,402.633 199.654,390.785 196.592,376.982 C192.883,377.378 189.925,378.68 187.717,380.889 C185.56,383.17 184.482,385.743 184.482,388.607 C184.482,393.555 187.123,397.561 192.404,400.623 C192.852,401.081 193.076,401.571 193.076,402.092 C193.076,402.613 192.852,403.097 192.404,403.545 C192.008,404.003 191.519,404.232 190.935,404.232 C190.873,404.232 190.581,404.17 190.06,404.045 C186.342,402.024 183.477,399.42 181.467,396.232 C179.571,392.837 178.623,389.415 178.623,385.967 C178.623,381.477 180.024,377.41 182.826,373.764 C185.753,370.118 189.56,367.774 194.248,366.732 C192.425,359.441 190.93,353.743 189.764,349.639 C188.722,350.816 187.469,352.232 186.006,353.889 C184.542,355.545 183.68,356.54 183.42,356.873 C181.076,359.925 179.284,362.3 178.045,363.998 C175.826,367.061 174.196,369.696 173.154,371.904 C172.05,374.383 171.076,377.087 170.232,380.014 C169.389,382.816 168.967,385.811 168.967,388.998 M201.576,289.686 C196.691,292.092 192.852,295.54 190.06,300.029 C187.196,304.654 185.764,309.633 185.764,314.967 C185.764,319.654 186.935,325.972 189.279,333.92 C193.967,328.253 197.482,323.014 199.826,318.201 C202.295,313.118 203.529,307.811 203.529,302.279 C203.529,298.113 202.878,293.915 201.576,289.686"/>
<path class="TimeSig" d="M272.467,317.912 C274.415,317.912 276.073,317.686 277.443,317.232 C278.813,316.779 279.691,316.553 280.076,316.553 C280.534,316.553 280.894,316.683 281.154,316.943 C281.352,317.131 281.482,317.355 281.545,317.615 C281.545,317.751 281.477,317.949 281.342,318.209 L252.935,351.225 L269.623,351.225 L269.623,338.131 C269.623,337.287 269.852,336.568 270.31,335.975 C271.092,335.329 271.743,334.938 272.264,334.803 C273.107,334.417 274.149,333.506 275.389,332.068 C276.43,330.902 277.67,328.855 279.107,325.928 C279.295,325.532 279.587,325.334 279.982,325.334 C280.764,325.334 281.217,325.792 281.342,326.709 L281.342,351.225 L288.482,351.225 C289.389,351.225 289.909,351.709 290.045,352.678 C290.045,353.657 289.524,354.146 288.482,354.146 L281.342,354.146 L281.342,354.928 C281.342,357.532 281.993,359.745 283.295,361.568 C284.795,363.391 286.555,364.303 288.576,364.303 C289.357,364.303 289.748,364.693 289.748,365.475 C289.748,366.256 289.357,366.646 288.576,366.646 C287.212,366.646 284.998,366.454 281.935,366.068 C279.133,365.61 276.951,365.381 275.389,365.381 C273.764,365.381 271.581,365.61 268.842,366.068 C265.915,366.454 263.738,366.646 262.31,366.646 C261.529,366.646 261.139,366.256 261.139,365.475 C261.139,364.693 261.529,364.303 262.31,364.303 C264.321,364.303 266.076,363.391 267.576,361.568 C268.941,359.683 269.623,357.469 269.623,354.928 L269.623,354.146 L252.935,354.146 C251.821,354.146 251.04,353.886 250.592,353.365 C250.06,352.98 249.795,352.459 249.795,351.803 C249.795,351.605 250.284,350.923 251.264,349.756 C252.378,348.454 253.55,346.86 254.779,344.975 C256.217,342.756 257.587,340.475 258.889,338.131 C260.316,335.464 261.456,332.402 262.31,328.943 C263.279,325.433 263.764,321.855 263.764,318.209 C263.764,317.167 264.222,316.646 265.139,316.646 C265.337,316.646 265.758,316.745 266.404,316.943 C266.602,317.006 267.011,317.102 267.631,317.232 C268.251,317.363 268.753,317.49 269.139,317.615 C270.316,317.813 271.425,317.912 272.467,317.912"/>
<path class="TimeSig" d="M272.467,368.084 C274.415,368.084 276.073,367.857 277.443,367.404 C278.813,366.951 279.691,366.725 280.076,366.725 C280.534,366.725 280.894,366.855 281.154,367.115 C281.352,367.303 281.482,367.527 281.545,367.787 C281.545,367.923 281.477,368.12 281.342,368.381 L252.935,401.397 L269.623,401.397 L269.623,388.303 C269.623,387.459 269.852,386.74 270.31,386.147 C271.092,385.501 271.743,385.11 272.264,384.975 C273.107,384.589 274.149,383.678 275.389,382.24 C276.43,381.074 277.67,379.027 279.107,376.1 C279.295,375.704 279.587,375.506 279.982,375.506 C280.764,375.506 281.217,375.964 281.342,376.881 L281.342,401.397 L288.482,401.397 C289.389,401.397 289.909,401.881 290.045,402.85 C290.045,403.829 289.524,404.318 288.482,404.318 L281.342,404.318 L281.342,405.1 C281.342,407.704 281.993,409.917 283.295,411.74 C284.795,413.563 286.555,414.475 288.576,414.475 C289.357,414.475 289.748,414.865 289.748,415.647 C289.748,416.428 289.357,416.818 288.576,416.818 C287.212,416.818 284.998,416.626 281.935,416.24 C279.133,415.782 276.951,415.553 275.389,415.553 C273.764,415.553 271.581,415.782 268.842,416.24 C265.915,416.626 263.738,416.818 262.31,416.818 C261.529,416.818 261.139,416.428 261.139,415.647 C261.139,414.865 261.529,414.475 262.31,414.475 C264.321,414.475 266.076,413.563 267.576,411.74 C268.941,409.855 269.623,407.641 269.623,405.1 L269.623,404.318 L252.935,404.318 C251.821,404.318 251.04,404.058 250.592,403.537 C250.06,403.152 249.795,402.631 249.795,401.975 C249.795,401.777 250.284,401.094 251.264,399.928 C252.378,398.626 253.55,397.032 254.779,395.147 C256.217,392.928 257.587,390.647 258.889,388.303 C260.316,385.636 261.456,382.574 262.31,379.115 C263.279,375.605 263.764,372.027 263.764,368.381 C263.764,367.339 264.222,366.818 265.139,366.818 C265.337,366.818 265.758,366.917 266.404,367.115 C266.602,367.178 267.011,367.274 267.631,367.404 C268.251,367.535 268.753,367.662 269.139,367.787 C270.316,367.985 271.425,368.084 272.467,368.084"/>
<path class="Beam" fill-rule="evenodd" d="M379.068,342.041 L619.127,316.698 L619.127,329.267 L379.068,354.61 L379.068,342.041 "/>
<path class="Beam" fill-rule="evenodd" d="M379.068,360.791 L619.127,335.448 L619.127,348.017 L379.068,373.36 L379.068,360.791 "/>
<path class="Beam" fill-rule="evenodd" d="M694.813,317.041 L934.871,291.698 L934.871,304.267 L694.813,329.61 L694.813,317.041 "/>
<path class="Beam" fill-rule="evenodd" d="M694.813,335.791 L934.871,310.448 L934.871,323.017 L694.813,348.36 L694.813,335.791 "/>
<path class="Beam" fill-rule="evenodd" d="M1010.56,292.041 L1250.62,266.698 L1250.62,279.267 L1010.56,304.61 L1010.56,292.041 "/>
<path class="Beam" fill-rule="evenodd" d="M1010.56,310.791 L1250.62,285.448 L1250.62,298.017 L1010.56,323.36 L1010.56,310.791 "/>
<path class="Beam" fill-rule="evenodd" d="M1296.64,454.23 L1536.7,460.566 L1536.7,473.07 L1296.64,466.735 L1296.64,454.23 "/>
<path class="Beam" fill-rule="evenodd" d="M1296.64,435.48 L1536.7,441.816 L1536.7,454.32 L1296.64,447.985 L1296.64,435.48 "/>
<path class="Beam" fill-rule="evenodd" d="M1671.05,266.371 L1920.97,291.7 L1920.97,304.264 L1671.05,278.935 L1671.05,266.371 "/>
<path class="Beam" fill-rule="evenodd" d="M1671.05,285.121 L1920.97,310.45 L1920.97,323.014 L1671.05,297.685 L1671.05,285.121 "/>
<path class="Beam" fill-rule="evenodd" d="M1999.94,291.371 L2249.87,316.7 L2249.87,329.264 L1999.94,303.935 L1999.94,291.371 "/>
<path class="Beam" fill-rule="evenodd" d="M1999.94,310.121 L2249.87,335.45 L2249.87,348.014 L1999.94,322.685 L1999.94,310.121 "/>
<path class="Beam" fill-rule="evenodd" d="M2328.84,316.371 L2578.76,341.7 L2578.76,354.264 L2328.84,328.935 L2328.84,316.371 "/>
<path class="Beam" fill-rule="evenodd" d="M2328.84,335.121 L2578.76,360.45 L2578.76,373.014 L2328.84,347.685 L2328.84,335.121 "/>
</svg>
